<?xml version="1.0" standalone="no"?><!DOCTYPE svg PUBLIC "-//W3C//DTD SVG 1.1//EN" "http://www.w3.org/Graphics/SVG/1.1/DTD/svg11.dtd"><svg t="1535088021673" class="icon" style="" viewBox="0 0 1483 1024" version="1.1" xmlns="http://www.w3.org/2000/svg" p-id="2227" xmlns:xlink="http://www.w3.org/1999/xlink" width="28.96484375" height="20"><defs><style type="text/css"></style></defs><path d="M177.632581 574.693643v-21.10693A10.281792 10.281792 0 0 0 167.183605 543.346717a10.448975 10.448975 0 0 0-10.448975 10.239996v21.10693H135.6277A10.281792 10.281792 0 0 0 125.387704 585.142618c0 5.600651 4.597549 10.448975 10.239996 10.448976H156.73463v21.10693c0 5.746936 4.681141 10.239996 10.448975 10.239996a10.448975 10.448975 0 0 0 10.448976-10.239996V595.591594h21.10693c5.746936 0 10.239996-4.681141 10.239996-10.448976a10.448975 10.448975 0 0 0-10.239996-10.448975H177.632581z m1274.774989 41.795901h21.106931a10.448975 10.448975 0 0 1 10.239995 10.448976c0 5.767834-4.493059 10.448975-10.239995 10.448975H1452.40757v21.10693a10.448975 10.448975 0 0 1-10.448975 10.239996 10.281792 10.281792 0 0 1-10.448975-10.239996V637.387495h-21.10693A10.448975 10.448975 0 0 1 1400.162694 626.93852c0-5.767834 4.493059-10.448975 10.239996-10.448976h21.10693v-21.10693A10.448975 10.448975 0 0 1 1441.958595 585.142618c5.767834 0 10.448975 4.493059 10.448975 10.239996v21.10693zM245.55092 47.020389V15.882442c0-8.777139-7.021711-15.882442-15.673463-15.882442-8.714445 0-15.673463 7.105303-15.673463 15.882442v31.137947H183.066048c-8.777139 0-15.882442 7.021711-15.882443 15.673463 0 8.714445 7.105303 15.673463 15.882443 15.673463h31.137946v31.137946c0 8.777139 7.021711 15.882442 15.673463 15.882443 8.714445 0 15.673463-7.105303 15.673463-15.882443V78.367315h31.137947c8.777139 0 15.882442-7.021711 15.882442-15.673463 0-8.714445-7.105303-15.673463-15.882442-15.673463h-31.137947zM417.959013 982.203681V209.14669A83.696292 83.696292 0 0 1 501.488122 125.387704h418.084401A83.591803 83.591803 0 0 1 1003.101631 209.14669v240.869779A82.881272 82.881272 0 0 1 1044.751247 438.856964h125.680275A83.487313 83.487313 0 0 1 1253.877039 522.574154V982.203681h167.03732A20.897951 20.897951 0 0 1 1441.958595 1003.101631c0 11.535669-9.404078 20.897951-21.044236 20.897951H250.921694A20.897951 20.897951 0 0 1 229.877457 1003.101631c0-11.535669 9.404078-20.897951 21.044237-20.89795H417.959013z m41.795901 0h501.550816V209.083996C961.30573 185.887271 942.53937 167.183605 919.405339 167.183605h-417.750034A41.900391 41.900391 0 0 0 459.754914 209.083996V982.203681z m543.346717 0h208.979507V522.532358A41.733207 41.733207 0 0 0 1170.285237 480.652865h-125.387704c-23.259419 0-41.795901 18.745462-41.795902 41.879493V982.203681zM543.346717 376.163112a20.897951 20.897951 0 0 1 20.688971-20.897951h84.009762c11.410281 0 20.688971 9.27869 20.688971 20.897951a20.897951 20.897951 0 0 1-20.688971 20.89795h-84.009762a20.751665 20.751665 0 0 1-20.688971-20.89795z m208.979507 0a20.897951 20.897951 0 0 1 20.688971-20.897951h84.009761c11.410281 0 20.688971 9.27869 20.688971 20.897951a20.897951 20.897951 0 0 1-20.688971 20.89795h-84.009761a20.751665 20.751665 0 0 1-20.688971-20.89795zM543.346717 585.142618a20.897951 20.897951 0 0 1 20.688971-20.89795h84.009762c11.410281 0 20.688971 9.27869 20.688971 20.89795a20.897951 20.897951 0 0 1-20.688971 20.897951h-84.009762a20.751665 20.751665 0 0 1-20.688971-20.897951z m208.979507 0a20.897951 20.897951 0 0 1 20.688971-20.89795h84.009761c11.410281 0 20.688971 9.27869 20.688971 20.89795a20.897951 20.897951 0 0 1-20.688971 20.897951h-84.009761a20.751665 20.751665 0 0 1-20.688971-20.897951zM543.346717 794.122125a20.897951 20.897951 0 0 1 20.688971-20.897951h84.009762c11.410281 0 20.688971 9.27869 20.688971 20.897951a20.897951 20.897951 0 0 1-20.688971 20.897951h-84.009762a20.751665 20.751665 0 0 1-20.688971-20.897951z m208.979507 0a20.897951 20.897951 0 0 1 20.688971-20.897951h84.009761c11.410281 0 20.688971 9.27869 20.688971 20.897951a20.897951 20.897951 0 0 1-20.688971 20.897951h-84.009761a20.751665 20.751665 0 0 1-20.688971-20.897951z m334.36721-209.188486c0-11.410281 9.27869-20.688971 20.897951-20.688971a20.897951 20.897951 0 0 1 20.89795 20.688971v84.009761c0 11.410281-9.27869 20.688971-20.89795 20.688972a20.897951 20.897951 0 0 1-20.897951-20.688972v-84.009761z m0 208.979506c0-11.410281 9.27869-20.688971 20.897951-20.688971a20.897951 20.897951 0 0 1 20.89795 20.688971v84.009762c0 11.410281-9.27869 20.688971-20.89795 20.688971a20.897951 20.897951 0 0 1-20.897951-20.688971v-84.009762zM20.897951 1003.101631c0-11.535669 9.153302-20.897951 20.960644-20.89795h104.364366A20.877053 20.877053 0 0 1 167.183605 1003.101631c0 11.535669-9.153302 20.897951-20.960644 20.897951H41.858595A20.877053 20.877053 0 0 1 20.897951 1003.101631z m41.795901-626.938519a62.693852 62.693852 0 1 1 0-125.387704 62.693852 62.693852 0 0 1 0 125.387704z m0-31.346926a31.346926 31.346926 0 1 0 0-62.693852 31.346926 31.346926 0 0 0 0 62.693852zM1274.77499 250.775408a62.693852 62.693852 0 1 1 0-125.387704 62.693852 62.693852 0 0 1 0 125.387704z m0-31.346926a31.346926 31.346926 0 1 0 0-62.693852 31.346926 31.346926 0 0 0 0 62.693852z" fill="#8A96A3" p-id="2228"></path></svg>